<svg width="80" height="80" viewBox="0 0 80 80" fill="none" xmlns="http://www.w3.org/2000/svg">
<g clip-path="url(#clip0_322_10909)">
<rect width="80" height="80" rx="8" fill="white"/>
<path d="M25.1234 7.27271H23.1401V9.25598H25.1234V7.27271Z" fill="black"/>
<path d="M31.0741 7.27271H29.0908V9.25598H31.0741V7.27271Z" fill="black"/>
<path d="M40.9916 7.27271H39.0083V9.25598H40.9916V7.27271Z" fill="black"/>
<path d="M44.9584 7.27271H42.9751V9.25598H44.9584V7.27271Z" fill="black"/>
<path d="M46.9418 7.27271H44.9585V9.25598H46.9418V7.27271Z" fill="black"/>
<path d="M52.892 7.27271H50.9087V9.25598H52.892V7.27271Z" fill="black"/>
<path d="M54.8758 7.27271H52.8926V9.25598H54.8758V7.27271Z" fill="black"/>
<path d="M29.0902 9.25598H27.1069V11.2393H29.0902V9.25598Z" fill="black"/>
<path d="M35.0409 9.25623H33.0576V11.2395H35.0409V9.25623Z" fill="black"/>
<path d="M37.0248 9.25623H35.0415V11.2395H37.0248V9.25623Z" fill="black"/>
<path d="M42.9745 9.25623H40.9912V11.2395H42.9745V9.25623Z" fill="black"/>
<path d="M50.9086 9.25623H48.9253V11.2395H50.9086V9.25623Z" fill="black"/>
<path d="M52.892 9.25623H50.9087V11.2395H52.892V9.25623Z" fill="black"/>
<path d="M54.8758 9.25623H52.8926V11.2395H54.8758V9.25623Z" fill="black"/>
<path d="M25.1234 11.2394H23.1401V13.2227H25.1234V11.2394Z" fill="black"/>
<path d="M29.0902 11.2394H27.1069V13.2227H29.0902V11.2394Z" fill="black"/>
<path d="M33.057 11.2394H31.0737V13.2227H33.057V11.2394Z" fill="black"/>
<path d="M35.0409 11.2394H33.0576V13.2227H35.0409V11.2394Z" fill="black"/>
<path d="M37.0248 11.2394H35.0415V13.2227H37.0248V11.2394Z" fill="black"/>
<path d="M39.0077 11.2394H37.0244V13.2227H39.0077V11.2394Z" fill="black"/>
<path d="M40.9916 11.2394H39.0083V13.2227H40.9916V11.2394Z" fill="black"/>
<path d="M42.9745 11.2394H40.9912V13.2227H42.9745V11.2394Z" fill="black"/>
<path d="M44.9584 11.2394H42.9751V13.2227H44.9584V11.2394Z" fill="black"/>
<path d="M46.9418 11.2394H44.9585V13.2227H46.9418V11.2394Z" fill="black"/>
<path d="M54.8758 11.2394H52.8926V13.2227H54.8758V11.2394Z" fill="black"/>
<path d="M25.1234 13.2229H23.1401V15.2062H25.1234V13.2229Z" fill="black"/>
<path d="M29.0902 13.2229H27.1069V15.2062H29.0902V13.2229Z" fill="black"/>
<path d="M31.0741 13.2227H29.0908V15.2059H31.0741V13.2227Z" fill="black"/>
<path d="M35.0409 13.2229H33.0576V15.2062H35.0409V13.2229Z" fill="black"/>
<path d="M40.9916 13.2227H39.0083V15.2059H40.9916V13.2227Z" fill="black"/>
<path d="M42.9745 13.2229H40.9912V15.2062H42.9745V13.2229Z" fill="black"/>
<path d="M46.9418 13.2229H44.9585V15.2062H46.9418V13.2229Z" fill="black"/>
<path d="M48.9257 13.2227H46.9424V15.2059H48.9257V13.2227Z" fill="black"/>
<path d="M52.892 13.2229H50.9087V15.2062H52.892V13.2229Z" fill="black"/>
<path d="M54.8758 13.2227H52.8926V15.2059H54.8758V13.2227Z" fill="black"/>
<path d="M31.0741 15.207H29.0908V17.1903H31.0741V15.207Z" fill="black"/>
<path d="M42.9745 15.207H40.9912V17.1903H42.9745V15.207Z" fill="black"/>
<path d="M44.9584 15.207H42.9751V17.1903H44.9584V15.207Z" fill="black"/>
<path d="M52.892 15.207H50.9087V17.1903H52.892V15.207Z" fill="black"/>
<path d="M54.8758 15.207H52.8926V17.1903H54.8758V15.207Z" fill="black"/>
<path d="M25.1234 17.1899H23.1401V19.1732H25.1234V17.1899Z" fill="black"/>
<path d="M33.057 17.1899H31.0737V19.1732H33.057V17.1899Z" fill="black"/>
<path d="M35.0409 17.1899H33.0576V19.1732H35.0409V17.1899Z" fill="black"/>
<path d="M40.9916 17.1899H39.0083V19.1732H40.9916V17.1899Z" fill="black"/>
<path d="M42.9745 17.1899H40.9912V19.1732H42.9745V17.1899Z" fill="black"/>
<path d="M44.9584 17.1899H42.9751V19.1732H44.9584V17.1899Z" fill="black"/>
<path d="M46.9418 17.1899H44.9585V19.1732H46.9418V17.1899Z" fill="black"/>
<path d="M48.9257 17.1899H46.9424V19.1732H48.9257V17.1899Z" fill="black"/>
<path d="M50.9086 17.1899H48.9253V19.1732H50.9086V17.1899Z" fill="black"/>
<path d="M56.8592 17.1899H54.876V19.1732H56.8592V17.1899Z" fill="black"/>
<path d="M25.1234 19.173H23.1401V21.1562H25.1234V19.173Z" fill="black"/>
<path d="M29.0902 19.173H27.1069V21.1562H29.0902V19.173Z" fill="black"/>
<path d="M33.057 19.173H31.0737V21.1562H33.057V19.173Z" fill="black"/>
<path d="M37.0248 19.1732H35.0415V21.1565H37.0248V19.1732Z" fill="black"/>
<path d="M40.9916 19.1732H39.0083V21.1565H40.9916V19.1732Z" fill="black"/>
<path d="M44.9584 19.1732H42.9751V21.1565H44.9584V19.1732Z" fill="black"/>
<path d="M48.9257 19.1732H46.9424V21.1565H48.9257V19.1732Z" fill="black"/>
<path d="M52.892 19.173H50.9087V21.1562H52.892V19.173Z" fill="black"/>
<path d="M56.8592 19.1732H54.876V21.1565H56.8592V19.1732Z" fill="black"/>
<path d="M25.1234 21.157H23.1401V23.1403H25.1234V21.157Z" fill="black"/>
<path d="M29.0902 21.157H27.1069V23.1403H29.0902V21.157Z" fill="black"/>
<path d="M35.0409 21.157H33.0576V23.1403H35.0409V21.157Z" fill="black"/>
<path d="M40.9916 21.157H39.0083V23.1403H40.9916V21.157Z" fill="black"/>
<path d="M42.9745 21.157H40.9912V23.1403H42.9745V21.157Z" fill="black"/>
<path d="M50.9086 21.157H48.9253V23.1403H50.9086V21.157Z" fill="black"/>
<path d="M54.8758 21.157H52.8926V23.1403H54.8758V21.157Z" fill="black"/>
<path d="M56.8592 21.157H54.876V23.1403H56.8592V21.157Z" fill="black"/>
<path d="M11.2391 23.1405H9.25586V25.1238H11.2391V23.1405Z" fill="black"/>
<path d="M15.2059 23.1403H13.2227V25.1235H15.2059V23.1403Z" fill="black"/>
<path d="M19.1732 23.1405H17.1899V25.1238H19.1732V23.1405Z" fill="black"/>
<path d="M21.1571 23.1405H19.1738V25.1238H21.1571V23.1405Z" fill="black"/>
<path d="M23.14 23.1405H21.1567V25.1238H23.14V23.1405Z" fill="black"/>
<path d="M25.1234 23.1403H23.1401V25.1235H25.1234V23.1403Z" fill="black"/>
<path d="M31.0741 23.1405H29.0908V25.1238H31.0741V23.1405Z" fill="black"/>
<path d="M35.0409 23.1405H33.0576V25.1238H35.0409V23.1405Z" fill="black"/>
<path d="M39.0077 23.1405H37.0244V25.1238H39.0077V23.1405Z" fill="black"/>
<path d="M40.9916 23.1405H39.0083V25.1238H40.9916V23.1405Z" fill="black"/>
<path d="M46.9418 23.1405H44.9585V25.1238H46.9418V23.1405Z" fill="black"/>
<path d="M48.9257 23.1405H46.9424V25.1238H48.9257V23.1405Z" fill="black"/>
<path d="M50.9086 23.1405H48.9253V25.1238H50.9086V23.1405Z" fill="black"/>
<path d="M54.8758 23.1405H52.8926V25.1238H54.8758V23.1405Z" fill="black"/>
<path d="M58.8426 23.1405H56.8594V25.1238H58.8426V23.1405Z" fill="black"/>
<path d="M60.826 23.1405H58.8428V25.1238H60.826V23.1405Z" fill="black"/>
<path d="M62.8099 23.1405H60.8267V25.1238H62.8099V23.1405Z" fill="black"/>
<path d="M66.7772 23.1405H64.7939V25.1238H66.7772V23.1405Z" fill="black"/>
<path d="M68.7601 23.1405H66.7769V25.1238H68.7601V23.1405Z" fill="black"/>
<path d="M72.7274 23.1405H70.7441V25.1238H72.7274V23.1405Z" fill="black"/>
<path d="M9.25573 25.1243H7.27246V27.1075H9.25573V25.1243Z" fill="black"/>
<path d="M11.2391 25.1243H9.25586V27.1075H11.2391V25.1243Z" fill="black"/>
<path d="M17.1898 25.1243H15.2065V27.1075H17.1898V25.1243Z" fill="black"/>
<path d="M19.1732 25.1243H17.1899V27.1075H19.1732V25.1243Z" fill="black"/>
<path d="M23.14 25.1243H21.1567V27.1075H23.14V25.1243Z" fill="black"/>
<path d="M29.0902 25.1243H27.1069V27.1075H29.0902V25.1243Z" fill="black"/>
<path d="M31.0741 25.1243H29.0908V27.1075H31.0741V25.1243Z" fill="black"/>
<path d="M39.0077 25.1243H37.0244V27.1075H39.0077V25.1243Z" fill="black"/>
<path d="M40.9916 25.1243H39.0083V27.1075H40.9916V25.1243Z" fill="black"/>
<path d="M48.9257 25.1243H46.9424V27.1075H48.9257V25.1243Z" fill="black"/>
<path d="M50.9086 25.1243H48.9253V27.1075H50.9086V25.1243Z" fill="black"/>
<path d="M52.892 25.1243H50.9087V27.1075H52.892V25.1243Z" fill="black"/>
<path d="M56.8592 25.1243H54.876V27.1075H56.8592V25.1243Z" fill="black"/>
<path d="M58.8426 25.1243H56.8594V27.1075H58.8426V25.1243Z" fill="black"/>
<path d="M60.826 25.1243H58.8428V27.1075H60.826V25.1243Z" fill="black"/>
<path d="M62.8099 25.1243H60.8267V27.1075H62.8099V25.1243Z" fill="black"/>
<path d="M70.7435 25.1243H68.7603V27.1075H70.7435V25.1243Z" fill="black"/>
<path d="M72.7274 25.1243H70.7441V27.1075H72.7274V25.1243Z" fill="black"/>
<path d="M9.25573 27.1072H7.27246V29.0905H9.25573V27.1072Z" fill="black"/>
<path d="M11.2391 27.1072H9.25586V29.0905H11.2391V27.1072Z" fill="black"/>
<path d="M17.1898 27.1072H15.2065V29.0905H17.1898V27.1072Z" fill="black"/>
<path d="M21.1571 27.1072H19.1738V29.0905H21.1571V27.1072Z" fill="black"/>
<path d="M23.14 27.1072H21.1567V29.0905H23.14V27.1072Z" fill="black"/>
<path d="M27.1073 27.1072H25.124V29.0905H27.1073V27.1072Z" fill="black"/>
<path d="M31.0741 27.1072H29.0908V29.0905H31.0741V27.1072Z" fill="black"/>
<path d="M33.057 27.1072H31.0737V29.0905H33.057V27.1072Z" fill="black"/>
<path d="M35.0409 27.1072H33.0576V29.0905H35.0409V27.1072Z" fill="black"/>
<path d="M39.0077 27.1072H37.0244V29.0905H39.0077V27.1072Z" fill="black"/>
<path d="M42.9745 27.1072H40.9912V29.0905H42.9745V27.1072Z" fill="black"/>
<path d="M46.9418 27.1072H44.9585V29.0905H46.9418V27.1072Z" fill="black"/>
<path d="M56.8592 27.1072H54.876V29.0905H56.8592V27.1072Z" fill="black"/>
<path d="M62.8099 27.1072H60.8267V29.0905H62.8099V27.1072Z" fill="black"/>
<path d="M64.7928 27.1072H62.8096V29.0905H64.7928V27.1072Z" fill="black"/>
<path d="M68.7601 27.1072H66.7769V29.0905H68.7601V27.1072Z" fill="black"/>
<path d="M72.7274 27.1072H70.7441V29.0905H72.7274V27.1072Z" fill="black"/>
<path d="M9.25573 29.0907H7.27246V31.074H9.25573V29.0907Z" fill="black"/>
<path d="M15.2059 29.0907H13.2227V31.074H15.2059V29.0907Z" fill="black"/>
<path d="M17.1898 29.0907H15.2065V31.074H17.1898V29.0907Z" fill="black"/>
<path d="M19.1732 29.0907H17.1899V31.074H19.1732V29.0907Z" fill="black"/>
<path d="M25.1234 29.0907H23.1401V31.074H25.1234V29.0907Z" fill="black"/>
<path d="M35.0409 29.0907H33.0576V31.074H35.0409V29.0907Z" fill="black"/>
<path d="M39.0077 29.0907H37.0244V31.074H39.0077V29.0907Z" fill="black"/>
<path d="M42.9745 29.0907H40.9912V31.074H42.9745V29.0907Z" fill="black"/>
<path d="M46.9418 29.0907H44.9585V31.074H46.9418V29.0907Z" fill="black"/>
<path d="M50.9086 29.0907H48.9253V31.074H50.9086V29.0907Z" fill="black"/>
<path d="M54.8758 29.0907H52.8926V31.074H54.8758V29.0907Z" fill="black"/>
<path d="M64.7928 29.0907H62.8096V31.074H64.7928V29.0907Z" fill="black"/>
<path d="M66.7772 29.0907H64.7939V31.074H66.7772V29.0907Z" fill="black"/>
<path d="M9.25573 31.0742H7.27246V33.0575H9.25573V31.0742Z" fill="black"/>
<path d="M19.1732 31.0742H17.1899V33.0575H19.1732V31.0742Z" fill="black"/>
<path d="M21.1571 31.0748H19.1738V33.0581H21.1571V31.0748Z" fill="black"/>
<path d="M25.1234 31.0742H23.1401V33.0575H25.1234V31.0742Z" fill="black"/>
<path d="M27.1073 31.0742H25.124V33.0575H27.1073V31.0742Z" fill="black"/>
<path d="M29.0902 31.0742H27.1069V33.0575H29.0902V31.0742Z" fill="black"/>
<path d="M35.0409 31.0748H33.0576V33.0581H35.0409V31.0748Z" fill="black"/>
<path d="M37.0248 31.0748H35.0415V33.0581H37.0248V31.0748Z" fill="black"/>
<path d="M39.0077 31.0748H37.0244V33.0581H39.0077V31.0748Z" fill="black"/>
<path d="M48.9257 31.0748H46.9424V33.0581H48.9257V31.0748Z" fill="black"/>
<path d="M50.9086 31.0742H48.9253V33.0575H50.9086V31.0742Z" fill="black"/>
<path d="M56.8592 31.0748H54.876V33.0581H56.8592V31.0748Z" fill="black"/>
<path d="M58.8426 31.0742H56.8594V33.0575H58.8426V31.0742Z" fill="black"/>
<path d="M60.826 31.0748H58.8428V33.0581H60.826V31.0748Z" fill="black"/>
<path d="M66.7772 31.0742H64.7939V33.0575H66.7772V31.0742Z" fill="black"/>
<path d="M72.7274 31.0748H70.7441V33.0581H72.7274V31.0748Z" fill="black"/>
<path d="M9.25573 33.0577H7.27246V35.041H9.25573V33.0577Z" fill="black"/>
<path d="M13.223 33.0577H11.2397V35.041H13.223V33.0577Z" fill="black"/>
<path d="M19.1732 33.0577H17.1899V35.041H19.1732V33.0577Z" fill="black"/>
<path d="M23.14 33.0577H21.1567V35.041H23.14V33.0577Z" fill="black"/>
<path d="M31.0741 33.0577H29.0908V35.041H31.0741V33.0577Z" fill="black"/>
<path d="M37.0248 33.0577H35.0415V35.041H37.0248V33.0577Z" fill="black"/>
<path d="M40.9916 33.0577H39.0083V35.041H40.9916V33.0577Z" fill="black"/>
<path d="M42.9745 33.0575H40.9912V35.0408H42.9745V33.0575Z" fill="black"/>
<path d="M46.9418 33.0577H44.9585V35.041H46.9418V33.0577Z" fill="black"/>
<path d="M48.9257 33.0577H46.9424V35.041H48.9257V33.0577Z" fill="black"/>
<path d="M50.9086 33.0577H48.9253V35.041H50.9086V33.0577Z" fill="black"/>
<path d="M52.892 33.0575H50.9087V35.0408H52.892V33.0575Z" fill="black"/>
<path d="M56.8592 33.0577H54.876V35.041H56.8592V33.0577Z" fill="black"/>
<path d="M60.826 33.0577H58.8428V35.041H60.826V33.0577Z" fill="black"/>
<path d="M62.8099 33.0577H60.8267V35.041H62.8099V33.0577Z" fill="black"/>
<path d="M64.7928 33.0575H62.8096V35.0408H64.7928V33.0575Z" fill="black"/>
<path d="M68.7601 33.0577H66.7769V35.041H68.7601V33.0577Z" fill="black"/>
<path d="M70.7435 33.0577H68.7603V35.041H70.7435V33.0577Z" fill="black"/>
<path d="M72.7274 33.0577H70.7441V35.041H72.7274V33.0577Z" fill="black"/>
<path d="M9.25573 35.041H7.27246V37.0243H9.25573V35.041Z" fill="black"/>
<path d="M11.2391 35.041H9.25586V37.0243H11.2391V35.041Z" fill="black"/>
<path d="M17.1898 35.041H15.2065V37.0243H17.1898V35.041Z" fill="black"/>
<path d="M19.1732 35.0415H17.1899V37.0248H19.1732V35.0415Z" fill="black"/>
<path d="M21.1571 35.041H19.1738V37.0243H21.1571V35.041Z" fill="black"/>
<path d="M23.14 35.0415H21.1567V37.0248H23.14V35.0415Z" fill="black"/>
<path d="M29.0902 35.041H27.1069V37.0243H29.0902V35.041Z" fill="black"/>
<path d="M31.0746 35.0415H29.0913V37.0248H31.0746V35.0415Z" fill="black"/>
<path d="M33.057 35.041H31.0737V37.0243H33.057V35.041Z" fill="black"/>
<path d="M35.0409 35.041H33.0576V37.0243H35.0409V35.041Z" fill="black"/>
<path d="M39.0077 35.041H37.0244V37.0243H39.0077V35.041Z" fill="black"/>
<path d="M44.9584 35.041H42.9751V37.0243H44.9584V35.041Z" fill="black"/>
<path d="M50.9086 35.0415H48.9253V37.0248H50.9086V35.0415Z" fill="black"/>
<path d="M52.892 35.041H50.9087V37.0243H52.892V35.041Z" fill="black"/>
<path d="M54.8758 35.0415H52.8926V37.0248H54.8758V35.0415Z" fill="black"/>
<path d="M56.8592 35.041H54.876V37.0243H56.8592V35.041Z" fill="black"/>
<path d="M58.8426 35.0415H56.8594V37.0248H58.8426V35.0415Z" fill="black"/>
<path d="M60.826 35.041H58.8428V37.0243H60.826V35.041Z" fill="black"/>
<path d="M62.8099 35.0415H60.8267V37.0248H62.8099V35.0415Z" fill="black"/>
<path d="M64.7928 35.041H62.8096V37.0243H64.7928V35.041Z" fill="black"/>
<path d="M70.7435 35.041H68.7603V37.0243H70.7435V35.041Z" fill="black"/>
<path d="M9.25573 37.0248H7.27246V39.0081H9.25573V37.0248Z" fill="black"/>
<path d="M11.2391 37.0248H9.25586V39.0081H11.2391V37.0248Z" fill="black"/>
<path d="M17.1898 37.0248H15.2065V39.0081H17.1898V37.0248Z" fill="black"/>
<path d="M19.1732 37.0248H17.1899V39.0081H19.1732V37.0248Z" fill="black"/>
<path d="M23.14 37.0248H21.1567V39.0081H23.14V37.0248Z" fill="black"/>
<path d="M25.1234 37.0248H23.1401V39.0081H25.1234V37.0248Z" fill="black"/>
<path d="M29.0902 37.0248H27.1069V39.0081H29.0902V37.0248Z" fill="black"/>
<path d="M33.057 37.0248H31.0737V39.0081H33.057V37.0248Z" fill="black"/>
<path d="M35.0409 37.0248H33.0576V39.0081H35.0409V37.0248Z" fill="black"/>
<path d="M37.0248 37.0248H35.0415V39.0081H37.0248V37.0248Z" fill="black"/>
<path d="M39.0077 37.0248H37.0244V39.0081H39.0077V37.0248Z" fill="black"/>
<path d="M40.9916 37.0248H39.0083V39.0081H40.9916V37.0248Z" fill="black"/>
<path d="M42.9745 37.0248H40.9912V39.0081H42.9745V37.0248Z" fill="black"/>
<path d="M46.9418 37.0248H44.9585V39.0081H46.9418V37.0248Z" fill="black"/>
<path d="M50.9086 37.0248H48.9253V39.0081H50.9086V37.0248Z" fill="black"/>
<path d="M52.892 37.0248H50.9087V39.0081H52.892V37.0248Z" fill="black"/>
<path d="M60.826 37.0248H58.8428V39.0081H60.826V37.0248Z" fill="black"/>
<path d="M64.7928 37.0248H62.8096V39.0081H64.7928V37.0248Z" fill="black"/>
<path d="M66.7772 37.0248H64.7939V39.0081H66.7772V37.0248Z" fill="black"/>
<path d="M70.7435 37.0248H68.7603V39.0081H70.7435V37.0248Z" fill="black"/>
<path d="M13.223 39.0079H11.2397V40.9912H13.223V39.0079Z" fill="black"/>
<path d="M15.2059 39.0079H13.2227V40.9912H15.2059V39.0079Z" fill="black"/>
<path d="M21.1571 39.0079H19.1738V40.9912H21.1571V39.0079Z" fill="black"/>
<path d="M25.1234 39.0079H23.1401V40.9912H25.1234V39.0079Z" fill="black"/>
<path d="M31.0746 39.0079H29.0913V40.9912H31.0746V39.0079Z" fill="black"/>
<path d="M33.057 39.0079H31.0737V40.9912H33.057V39.0079Z" fill="black"/>
<path d="M37.0248 39.0079H35.0415V40.9912H37.0248V39.0079Z" fill="black"/>
<path d="M39.0077 39.0085H37.0244V40.9918H39.0077V39.0085Z" fill="black"/>
<path d="M40.9916 39.0085H39.0083V40.9918H40.9916V39.0085Z" fill="black"/>
<path d="M42.9745 39.0085H40.9912V40.9918H42.9745V39.0085Z" fill="black"/>
<path d="M46.9418 39.0079H44.9585V40.9912H46.9418V39.0079Z" fill="black"/>
<path d="M48.9257 39.0085H46.9424V40.9918H48.9257V39.0085Z" fill="black"/>
<path d="M50.9086 39.0085H48.9253V40.9918H50.9086V39.0085Z" fill="black"/>
<path d="M60.826 39.0079H58.8428V40.9912H60.826V39.0079Z" fill="black"/>
<path d="M64.7928 39.0085H62.8096V40.9918H64.7928V39.0085Z" fill="black"/>
<path d="M70.7435 39.0079H68.7603V40.9912H70.7435V39.0079Z" fill="black"/>
<path d="M9.25573 40.9921H7.27246V42.9753H9.25573V40.9921Z" fill="black"/>
<path d="M13.223 40.9921H11.2397V42.9753H13.223V40.9921Z" fill="black"/>
<path d="M17.1898 40.9921H15.2065V42.9753H17.1898V40.9921Z" fill="black"/>
<path d="M25.1234 40.9921H23.1401V42.9753H25.1234V40.9921Z" fill="black"/>
<path d="M29.0902 40.9921H27.1069V42.9753H29.0902V40.9921Z" fill="black"/>
<path d="M31.0746 40.9921H29.0913V42.9753H31.0746V40.9921Z" fill="black"/>
<path d="M35.0409 40.9921H33.0576V42.9753H35.0409V40.9921Z" fill="black"/>
<path d="M37.0248 40.9921H35.0415V42.9753H37.0248V40.9921Z" fill="black"/>
<path d="M40.9916 40.9921H39.0083V42.9753H40.9916V40.9921Z" fill="black"/>
<path d="M42.9745 40.9921H40.9912V42.9753H42.9745V40.9921Z" fill="black"/>
<path d="M44.9584 40.9921H42.9751V42.9753H44.9584V40.9921Z" fill="black"/>
<path d="M54.8758 40.9921H52.8926V42.9753H54.8758V40.9921Z" fill="black"/>
<path d="M56.8592 40.9921H54.876V42.9753H56.8592V40.9921Z" fill="black"/>
<path d="M58.8426 40.9921H56.8594V42.9753H58.8426V40.9921Z" fill="black"/>
<path d="M62.8099 40.9921H60.8267V42.9753H62.8099V40.9921Z" fill="black"/>
<path d="M66.7772 40.9921H64.7939V42.9753H66.7772V40.9921Z" fill="black"/>
<path d="M9.25573 42.9756H7.27246V44.9589H9.25573V42.9756Z" fill="black"/>
<path d="M17.1898 42.9756H15.2065V44.9589H17.1898V42.9756Z" fill="black"/>
<path d="M21.1571 42.9756H19.1738V44.9589H21.1571V42.9756Z" fill="black"/>
<path d="M25.1234 42.9756H23.1401V44.9589H25.1234V42.9756Z" fill="black"/>
<path d="M33.057 42.9756H31.0737V44.9589H33.057V42.9756Z" fill="black"/>
<path d="M37.0248 42.9756H35.0415V44.9589H37.0248V42.9756Z" fill="black"/>
<path d="M39.0077 42.9756H37.0244V44.9589H39.0077V42.9756Z" fill="black"/>
<path d="M40.9916 42.9756H39.0083V44.9589H40.9916V42.9756Z" fill="black"/>
<path d="M48.9257 42.9756H46.9424V44.9589H48.9257V42.9756Z" fill="black"/>
<path d="M50.9086 42.9756H48.9253V44.9589H50.9086V42.9756Z" fill="black"/>
<path d="M60.826 42.9756H58.8428V44.9589H60.826V42.9756Z" fill="black"/>
<path d="M68.7601 42.9756H66.7769V44.9589H68.7601V42.9756Z" fill="black"/>
<path d="M70.7435 42.9756H68.7603V44.9589H70.7435V42.9756Z" fill="black"/>
<path d="M72.7274 42.9756H70.7441V44.9589H72.7274V42.9756Z" fill="black"/>
<path d="M9.25573 44.9585H7.27246V46.9418H9.25573V44.9585Z" fill="black"/>
<path d="M11.2391 44.9585H9.25586V46.9418H11.2391V44.9585Z" fill="black"/>
<path d="M15.2059 44.9585H13.2227V46.9418H15.2059V44.9585Z" fill="black"/>
<path d="M19.1732 44.9585H17.1899V46.9418H19.1732V44.9585Z" fill="black"/>
<path d="M23.14 44.9585H21.1567V46.9418H23.14V44.9585Z" fill="black"/>
<path d="M29.0902 44.9585H27.1069V46.9418H29.0902V44.9585Z" fill="black"/>
<path d="M31.0746 44.9585H29.0913V46.9418H31.0746V44.9585Z" fill="black"/>
<path d="M37.0248 44.9585H35.0415V46.9418H37.0248V44.9585Z" fill="black"/>
<path d="M42.9745 44.9585H40.9912V46.9418H42.9745V44.9585Z" fill="black"/>
<path d="M50.9086 44.9585H48.9253V46.9418H50.9086V44.9585Z" fill="black"/>
<path d="M54.8758 44.9585H52.8926V46.9418H54.8758V44.9585Z" fill="black"/>
<path d="M56.8592 44.9585H54.876V46.9418H56.8592V44.9585Z" fill="black"/>
<path d="M58.8426 44.9585H56.8594V46.9418H58.8426V44.9585Z" fill="black"/>
<path d="M60.826 44.9585H58.8428V46.9418H60.826V44.9585Z" fill="black"/>
<path d="M62.8099 44.9585H60.8267V46.9418H62.8099V44.9585Z" fill="black"/>
<path d="M70.7435 44.9585H68.7603V46.9418H70.7435V44.9585Z" fill="black"/>
<path d="M72.7274 44.9585H70.7441V46.9418H72.7274V44.9585Z" fill="black"/>
<path d="M11.2391 46.9423H9.25586V48.9255H11.2391V46.9423Z" fill="black"/>
<path d="M13.223 46.9423H11.2397V48.9255H13.223V46.9423Z" fill="black"/>
<path d="M15.2059 46.9423H13.2227V48.9255H15.2059V46.9423Z" fill="black"/>
<path d="M21.1571 46.9423H19.1738V48.9255H21.1571V46.9423Z" fill="black"/>
<path d="M23.14 46.9423H21.1567V48.9255H23.14V46.9423Z" fill="black"/>
<path d="M25.1234 46.9423H23.1401V48.9255H25.1234V46.9423Z" fill="black"/>
<path d="M27.1073 46.9423H25.124V48.9255H27.1073V46.9423Z" fill="black"/>
<path d="M39.0077 46.9429H37.0244V48.9261H39.0077V46.9429Z" fill="black"/>
<path d="M48.9257 46.9423H46.9424V48.9255H48.9257V46.9423Z" fill="black"/>
<path d="M50.9086 46.9423H48.9253V48.9255H50.9086V46.9423Z" fill="black"/>
<path d="M54.8758 46.9423H52.8926V48.9255H54.8758V46.9423Z" fill="black"/>
<path d="M56.8592 46.9429H54.876V48.9261H56.8592V46.9429Z" fill="black"/>
<path d="M58.8426 46.9423H56.8594V48.9255H58.8426V46.9423Z" fill="black"/>
<path d="M11.2391 48.9255H9.25586V50.9088H11.2391V48.9255Z" fill="black"/>
<path d="M17.1898 48.9255H15.2065V50.9088H17.1898V48.9255Z" fill="black"/>
<path d="M23.14 48.9258H21.1567V50.9091H23.14V48.9258Z" fill="black"/>
<path d="M33.057 48.9255H31.0737V50.9088H33.057V48.9255Z" fill="black"/>
<path d="M39.0077 48.9255H37.0244V50.9088H39.0077V48.9255Z" fill="black"/>
<path d="M44.9584 48.9255H42.9751V50.9088H44.9584V48.9255Z" fill="black"/>
<path d="M48.9257 48.9255H46.9424V50.9088H48.9257V48.9255Z" fill="black"/>
<path d="M56.8592 48.9255H54.876V50.9088H56.8592V48.9255Z" fill="black"/>
<path d="M58.8426 48.9258H56.8594V50.9091H58.8426V48.9258Z" fill="black"/>
<path d="M60.826 48.9255H58.8428V50.9088H60.826V48.9255Z" fill="black"/>
<path d="M68.7601 48.9255H66.7769V50.9088H68.7601V48.9255Z" fill="black"/>
<path d="M70.7435 48.9255H68.7603V50.9088H70.7435V48.9255Z" fill="black"/>
<path d="M72.7274 48.9255H70.7441V50.9088H72.7274V48.9255Z" fill="black"/>
<path d="M9.25573 50.9088H7.27246V52.8921H9.25573V50.9088Z" fill="black"/>
<path d="M11.2391 50.9088H9.25586V52.8921H11.2391V50.9088Z" fill="black"/>
<path d="M13.223 50.9088H11.2397V52.8921H13.223V50.9088Z" fill="black"/>
<path d="M15.2059 50.9088H13.2227V52.8921H15.2059V50.9088Z" fill="black"/>
<path d="M19.1732 50.9088H17.1899V52.8921H19.1732V50.9088Z" fill="black"/>
<path d="M21.1571 50.9088H19.1738V52.8921H21.1571V50.9088Z" fill="black"/>
<path d="M25.1234 50.9088H23.1401V52.8921H25.1234V50.9088Z" fill="black"/>
<path d="M33.057 50.9088H31.0737V52.8921H33.057V50.9088Z" fill="black"/>
<path d="M40.9916 50.9088H39.0083V52.8921H40.9916V50.9088Z" fill="black"/>
<path d="M42.9745 50.9088H40.9912V52.8921H42.9745V50.9088Z" fill="black"/>
<path d="M44.9584 50.9088H42.9751V52.8921H44.9584V50.9088Z" fill="black"/>
<path d="M46.9418 50.9088H44.9585V52.8921H46.9418V50.9088Z" fill="black"/>
<path d="M48.9257 50.9088H46.9424V52.8921H48.9257V50.9088Z" fill="black"/>
<path d="M50.9086 50.9088H48.9253V52.8921H50.9086V50.9088Z" fill="black"/>
<path d="M52.892 50.9088H50.9087V52.8921H52.892V50.9088Z" fill="black"/>
<path d="M62.8099 50.9088H60.8267V52.8921H62.8099V50.9088Z" fill="black"/>
<path d="M64.7928 50.9088H62.8096V52.8921H64.7928V50.9088Z" fill="black"/>
<path d="M72.7274 50.9088H70.7441V52.8921H72.7274V50.9088Z" fill="black"/>
<path d="M11.2391 52.8928H9.25586V54.8761H11.2391V52.8928Z" fill="black"/>
<path d="M13.223 52.8928H11.2397V54.8761H13.223V52.8928Z" fill="black"/>
<path d="M15.2059 52.8922H13.2227V54.8755H15.2059V52.8922Z" fill="black"/>
<path d="M17.1898 52.8928H15.2065V54.8761H17.1898V52.8928Z" fill="black"/>
<path d="M19.1732 52.8928H17.1899V54.8761H19.1732V52.8928Z" fill="black"/>
<path d="M25.1234 52.8922H23.1401V54.8755H25.1234V52.8922Z" fill="black"/>
<path d="M27.1073 52.8928H25.124V54.8761H27.1073V52.8928Z" fill="black"/>
<path d="M29.0902 52.8922H27.1069V54.8755H29.0902V52.8922Z" fill="black"/>
<path d="M31.0746 52.8928H29.0913V54.8761H31.0746V52.8928Z" fill="black"/>
<path d="M33.057 52.8928H31.0737V54.8761H33.057V52.8928Z" fill="black"/>
<path d="M35.0409 52.8922H33.0576V54.8755H35.0409V52.8922Z" fill="black"/>
<path d="M37.0248 52.8928H35.0415V54.8761H37.0248V52.8928Z" fill="black"/>
<path d="M39.0077 52.8928H37.0244V54.8761H39.0077V52.8928Z" fill="black"/>
<path d="M42.9745 52.8928H40.9912V54.8761H42.9745V52.8928Z" fill="black"/>
<path d="M50.9086 52.8928H48.9253V54.8761H50.9086V52.8928Z" fill="black"/>
<path d="M56.8592 52.8922H54.876V54.8755H56.8592V52.8922Z" fill="black"/>
<path d="M64.7928 52.8928H62.8096V54.8761H64.7928V52.8928Z" fill="black"/>
<path d="M66.7772 52.8928H64.7939V54.8761H66.7772V52.8928Z" fill="black"/>
<path d="M72.7274 52.8928H70.7441V54.8761H72.7274V52.8928Z" fill="black"/>
<path d="M9.25573 54.8757H7.27246V56.859H9.25573V54.8757Z" fill="black"/>
<path d="M19.1732 54.8757H17.1899V56.859H19.1732V54.8757Z" fill="black"/>
<path d="M21.1571 54.8757H19.1738V56.859H21.1571V54.8757Z" fill="black"/>
<path d="M33.057 54.8757H31.0737V56.859H33.057V54.8757Z" fill="black"/>
<path d="M37.0248 54.8757H35.0415V56.859H37.0248V54.8757Z" fill="black"/>
<path d="M39.0077 54.8757H37.0244V56.859H39.0077V54.8757Z" fill="black"/>
<path d="M40.9916 54.8757H39.0083V56.859H40.9916V54.8757Z" fill="black"/>
<path d="M42.9745 54.8757H40.9912V56.859H42.9745V54.8757Z" fill="black"/>
<path d="M44.9584 54.8757H42.9751V56.859H44.9584V54.8757Z" fill="black"/>
<path d="M46.9418 54.8757H44.9585V56.859H46.9418V54.8757Z" fill="black"/>
<path d="M50.9086 54.8757H48.9253V56.859H50.9086V54.8757Z" fill="black"/>
<path d="M56.8592 54.8757H54.876V56.859H56.8592V54.8757Z" fill="black"/>
<path d="M58.8426 54.8757H56.8594V56.859H58.8426V54.8757Z" fill="black"/>
<path d="M60.826 54.8757H58.8428V56.859H60.826V54.8757Z" fill="black"/>
<path d="M62.8099 54.8757H60.8267V56.859H62.8099V54.8757Z" fill="black"/>
<path d="M64.7928 54.8757H62.8096V56.859H64.7928V54.8757Z" fill="black"/>
<path d="M70.7435 54.8757H68.7603V56.859H70.7435V54.8757Z" fill="black"/>
<path d="M25.1234 56.8599H23.1401V58.8431H25.1234V56.8599Z" fill="black"/>
<path d="M27.1073 56.8599H25.124V58.8431H27.1073V56.8599Z" fill="black"/>
<path d="M29.0902 56.8601H27.1069V58.8434H29.0902V56.8601Z" fill="black"/>
<path d="M33.057 56.8599H31.0737V58.8431H33.057V56.8599Z" fill="black"/>
<path d="M39.0077 56.8601H37.0244V58.8434H39.0077V56.8601Z" fill="black"/>
<path d="M40.9916 56.8601H39.0083V58.8434H40.9916V56.8601Z" fill="black"/>
<path d="M42.9745 56.8601H40.9912V58.8434H42.9745V56.8601Z" fill="black"/>
<path d="M44.9584 56.8601H42.9751V58.8434H44.9584V56.8601Z" fill="black"/>
<path d="M46.9418 56.8599H44.9585V58.8431H46.9418V56.8599Z" fill="black"/>
<path d="M48.9257 56.8601H46.9424V58.8434H48.9257V56.8601Z" fill="black"/>
<path d="M54.8758 56.8601H52.8926V58.8434H54.8758V56.8601Z" fill="black"/>
<path d="M56.8592 56.8601H54.876V58.8434H56.8592V56.8601Z" fill="black"/>
<path d="M64.7928 56.8601H62.8096V58.8434H64.7928V56.8601Z" fill="black"/>
<path d="M66.7772 56.8601H64.7939V58.8434H66.7772V56.8601Z" fill="black"/>
<path d="M70.7435 56.8599H68.7603V58.8431H70.7435V56.8599Z" fill="black"/>
<path d="M72.7274 56.8601H70.7441V58.8434H72.7274V56.8601Z" fill="black"/>
<path d="M25.1234 58.8434H23.1401V60.8267H25.1234V58.8434Z" fill="black"/>
<path d="M27.1073 58.8434H25.124V60.8267H27.1073V58.8434Z" fill="black"/>
<path d="M31.0746 58.8434H29.0913V60.8267H31.0746V58.8434Z" fill="black"/>
<path d="M33.057 58.8434H31.0737V60.8267H33.057V58.8434Z" fill="black"/>
<path d="M35.0409 58.8434H33.0576V60.8267H35.0409V58.8434Z" fill="black"/>
<path d="M37.0248 58.8434H35.0415V60.8267H37.0248V58.8434Z" fill="black"/>
<path d="M40.9916 58.8434H39.0083V60.8267H40.9916V58.8434Z" fill="black"/>
<path d="M42.9745 58.8434H40.9912V60.8267H42.9745V58.8434Z" fill="black"/>
<path d="M48.9257 58.8434H46.9424V60.8267H48.9257V58.8434Z" fill="black"/>
<path d="M52.892 58.8434H50.9087V60.8267H52.892V58.8434Z" fill="black"/>
<path d="M56.8592 58.8434H54.876V60.8267H56.8592V58.8434Z" fill="black"/>
<path d="M60.826 58.8434H58.8428V60.8267H60.826V58.8434Z" fill="black"/>
<path d="M64.7928 58.8434H62.8096V60.8267H64.7928V58.8434Z" fill="black"/>
<path d="M66.7772 58.8434H64.7939V60.8267H66.7772V58.8434Z" fill="black"/>
<path d="M68.7601 58.8434H66.7769V60.8267H68.7601V58.8434Z" fill="black"/>
<path d="M70.7435 58.8434H68.7603V60.8267H70.7435V58.8434Z" fill="black"/>
<path d="M25.1234 60.8263H23.1401V62.8096H25.1234V60.8263Z" fill="black"/>
<path d="M27.1073 60.826H25.124V62.8093H27.1073V60.826Z" fill="black"/>
<path d="M31.0746 60.826H29.0913V62.8093H31.0746V60.826Z" fill="black"/>
<path d="M37.0248 60.826H35.0415V62.8093H37.0248V60.826Z" fill="black"/>
<path d="M39.0077 60.8263H37.0244V62.8096H39.0077V60.8263Z" fill="black"/>
<path d="M40.9916 60.826H39.0083V62.8093H40.9916V60.826Z" fill="black"/>
<path d="M42.9745 60.8263H40.9912V62.8096H42.9745V60.8263Z" fill="black"/>
<path d="M44.9584 60.826H42.9751V62.8093H44.9584V60.826Z" fill="black"/>
<path d="M46.9418 60.8263H44.9585V62.8096H46.9418V60.8263Z" fill="black"/>
<path d="M48.9257 60.826H46.9424V62.8093H48.9257V60.826Z" fill="black"/>
<path d="M50.9086 60.826H48.9253V62.8093H50.9086V60.826Z" fill="black"/>
<path d="M52.892 60.8263H50.9087V62.8096H52.892V60.8263Z" fill="black"/>
<path d="M56.8592 60.8263H54.876V62.8096H56.8592V60.8263Z" fill="black"/>
<path d="M64.7928 60.8263H62.8096V62.8096H64.7928V60.8263Z" fill="black"/>
<path d="M72.7274 60.826H70.7441V62.8093H72.7274V60.826Z" fill="black"/>
<path d="M29.0902 62.8101H27.1069V64.7933H29.0902V62.8101Z" fill="black"/>
<path d="M31.0746 62.8101H29.0913V64.7933H31.0746V62.8101Z" fill="black"/>
<path d="M33.057 62.8101H31.0737V64.7933H33.057V62.8101Z" fill="black"/>
<path d="M35.0409 62.8101H33.0576V64.7933H35.0409V62.8101Z" fill="black"/>
<path d="M40.9916 62.8101H39.0083V64.7933H40.9916V62.8101Z" fill="black"/>
<path d="M44.9584 62.8101H42.9751V64.7933H44.9584V62.8101Z" fill="black"/>
<path d="M46.9418 62.8101H44.9585V64.7933H46.9418V62.8101Z" fill="black"/>
<path d="M48.9257 62.8101H46.9424V64.7933H48.9257V62.8101Z" fill="black"/>
<path d="M50.9086 62.8101H48.9253V64.7933H50.9086V62.8101Z" fill="black"/>
<path d="M52.892 62.8101H50.9087V64.7933H52.892V62.8101Z" fill="black"/>
<path d="M56.8592 62.8101H54.876V64.7933H56.8592V62.8101Z" fill="black"/>
<path d="M58.8426 62.8101H56.8594V64.7933H58.8426V62.8101Z" fill="black"/>
<path d="M60.826 62.8101H58.8428V64.7933H60.826V62.8101Z" fill="black"/>
<path d="M62.8099 62.8101H60.8267V64.7933H62.8099V62.8101Z" fill="black"/>
<path d="M64.7928 62.8101H62.8096V64.7933H64.7928V62.8101Z" fill="black"/>
<path d="M66.7772 62.8101H64.7939V64.7933H66.7772V62.8101Z" fill="black"/>
<path d="M25.1234 64.7938H23.1401V66.7771H25.1234V64.7938Z" fill="black"/>
<path d="M35.0409 64.7938H33.0576V66.7771H35.0409V64.7938Z" fill="black"/>
<path d="M37.0243 64.7938H35.041V66.7771H37.0243V64.7938Z" fill="black"/>
<path d="M42.9745 64.7938H40.9912V66.7771H42.9745V64.7938Z" fill="black"/>
<path d="M44.9584 64.7938H42.9751V66.7771H44.9584V64.7938Z" fill="black"/>
<path d="M48.9247 64.7938H46.9414V66.7771H48.9247V64.7938Z" fill="black"/>
<path d="M50.9086 64.7938H48.9253V66.7771H50.9086V64.7938Z" fill="black"/>
<path d="M56.8592 64.7938H54.876V66.7771H56.8592V64.7938Z" fill="black"/>
<path d="M60.826 64.7938H58.8428V66.7771H60.826V64.7938Z" fill="black"/>
<path d="M64.7928 64.7938H62.8096V66.7771H64.7928V64.7938Z" fill="black"/>
<path d="M70.7435 64.7938H68.7603V66.7771H70.7435V64.7938Z" fill="black"/>
<path d="M29.0902 66.7771H27.1069V68.7604H29.0902V66.7771Z" fill="black"/>
<path d="M37.0248 66.7771H35.0415V68.7604H37.0248V66.7771Z" fill="black"/>
<path d="M39.0077 66.7771H37.0244V68.7604H39.0077V66.7771Z" fill="black"/>
<path d="M42.9745 66.7771H40.9912V68.7604H42.9745V66.7771Z" fill="black"/>
<path d="M44.9584 66.7771H42.9751V68.7604H44.9584V66.7771Z" fill="black"/>
<path d="M50.9086 66.7771H48.9253V68.7604H50.9086V66.7771Z" fill="black"/>
<path d="M52.892 66.7771H50.9087V68.7604H52.892V66.7771Z" fill="black"/>
<path d="M54.8758 66.7771H52.8926V68.7604H54.8758V66.7771Z" fill="black"/>
<path d="M56.8592 66.7771H54.876V68.7604H56.8592V66.7771Z" fill="black"/>
<path d="M64.7928 66.7771H62.8096V68.7604H64.7928V66.7771Z" fill="black"/>
<path d="M66.7772 66.7771H64.7939V68.7604H66.7772V66.7771Z" fill="black"/>
<path d="M72.7274 66.7771H70.7441V68.7604H72.7274V66.7771Z" fill="black"/>
<path d="M25.1234 68.76H23.1401V70.7433H25.1234V68.76Z" fill="black"/>
<path d="M27.1073 68.76H25.124V70.7433H27.1073V68.76Z" fill="black"/>
<path d="M29.0902 68.76H27.1069V70.7433H29.0902V68.76Z" fill="black"/>
<path d="M31.0746 68.76H29.0913V70.7433H31.0746V68.76Z" fill="black"/>
<path d="M33.057 68.76H31.0737V70.7433H33.057V68.76Z" fill="black"/>
<path d="M40.9916 68.76H39.0083V70.7433H40.9916V68.76Z" fill="black"/>
<path d="M42.9745 68.76H40.9912V70.7433H42.9745V68.76Z" fill="black"/>
<path d="M44.9584 68.76H42.9751V70.7433H44.9584V68.76Z" fill="black"/>
<path d="M46.9418 68.76H44.9585V70.7433H46.9418V68.76Z" fill="black"/>
<path d="M48.9257 68.76H46.9424V70.7433H48.9257V68.76Z" fill="black"/>
<path d="M50.9086 68.76H48.9253V70.7433H50.9086V68.76Z" fill="black"/>
<path d="M56.8592 68.76H54.876V70.7433H56.8592V68.76Z" fill="black"/>
<path d="M58.8426 68.76H56.8594V70.7433H58.8426V68.76Z" fill="black"/>
<path d="M60.826 68.76H58.8428V70.7433H60.826V68.76Z" fill="black"/>
<path d="M29.0902 70.7441H27.1069V72.7274H29.0902V70.7441Z" fill="black"/>
<path d="M40.9916 70.7441H39.0083V72.7274H40.9916V70.7441Z" fill="black"/>
<path d="M44.9584 70.7441H42.9751V72.7274H44.9584V70.7441Z" fill="black"/>
<path d="M46.9418 70.7441H44.9585V72.7274H46.9418V70.7441Z" fill="black"/>
<path d="M48.9257 70.7441H46.9424V72.7274H48.9257V70.7441Z" fill="black"/>
<path d="M50.9086 70.7441H48.9253V72.7274H50.9086V70.7441Z" fill="black"/>
<path d="M56.8592 70.7441H54.876V72.7274H56.8592V70.7441Z" fill="black"/>
<path d="M64.7928 70.7441H62.8096V72.7274H64.7928V70.7441Z" fill="black"/>
<path d="M66.7772 70.7441H64.7939V72.7274H66.7772V70.7441Z" fill="black"/>
<path d="M70.7435 70.7441H68.7603V72.7274H70.7435V70.7441Z" fill="black"/>
<path d="M20.162 8.26001H8.26123V20.1608H20.162V8.26001Z" stroke="black" stroke-width="1.98347"/>
<path d="M17.1867 11.2354H11.2363V17.1858H17.1867V11.2354Z" fill="black"/>
<path d="M71.7392 8.25977H59.8384V20.1606H71.7392V8.25977Z" stroke="black" stroke-width="1.98347"/>
<path d="M68.7639 11.2354H62.8135V17.1858H68.7639V11.2354Z" fill="black"/>
<path d="M20.162 59.8358H8.26123V71.7366H20.162V59.8358Z" stroke="black" stroke-width="1.98347"/>
<path d="M17.1867 62.8125H11.2363V68.7629H17.1867V62.8125Z" fill="black"/>
</g>
<path fill-rule="evenodd" clip-rule="evenodd" d="M8.74166 0H17.1415V1.09271H8.74166C4.51726 1.09271 1.09271 4.51726 1.09271 8.74166V16.1905H0V8.74166C0 3.91378 3.91377 0 8.74166 0ZM0 62.8571V71.2583C0 76.0862 3.91378 80 8.74166 80H17.1415V78.9073H8.74166C4.51726 78.9073 1.09271 75.4827 1.09271 71.2583V62.8571H0ZM63.8082 80H71.2583C76.0862 80 80 76.0862 80 71.2583V62.8571H78.9073V71.2583C78.9073 75.4827 75.4827 78.9073 71.2583 78.9073H63.8082V80ZM80 8.74166V16.1905H78.9073V8.74166C78.9073 4.51726 75.4827 1.09271 71.2583 1.09271H63.8082V0H71.2583C76.0862 0 80 3.91377 80 8.74166Z" fill="#E12428"/>
<defs>
<clipPath id="clip0_322_10909">
<rect width="80" height="80" rx="8" fill="white"/>
</clipPath>
</defs>
</svg>
